<svg width="85" height="25" viewBox="0 0 85 25" fill="none" xmlns="http://www.w3.org/2000/svg">
<path d="M4.75508 20.7273C1.84341 18.0334 1.68441 13.509 4.39733 10.6178C7.11026 7.7265 11.6666 7.56861 14.5783 10.2625H17.6042C17.5744 10.2132 17.5396 10.1688 17.5098 10.1244C16.8241 9.11292 15.9496 8.24456 14.931 7.56368C12.2579 5.76775 8.84931 5.44211 5.87801 6.69038C4.17374 7.4058 2.7179 8.5998 1.67944 10.1244C-0.124209 12.7788 -0.452145 16.1585 0.804943 19.109C1.52541 20.8013 2.72784 22.2519 4.26318 23.2781C5.83826 24.334 7.69657 24.9014 9.59959 24.8964C10.8766 24.9014 12.1386 24.6448 13.3162 24.1514C15.0205 23.436 16.4813 22.242 17.5148 20.7174C17.5694 20.6336 17.629 20.5497 17.6837 20.4609H14.8515C12.1187 23.2682 7.63197 23.3867 4.75508 20.7273Z" fill="#FF4013"/>
<path d="M84.364 14.6487C83.8026 13.3314 82.8684 12.2015 81.671 11.4022C80.4437 10.5783 78.9978 10.1392 77.5171 10.1441C76.5234 10.1441 75.5396 10.3414 74.6253 10.7263C73.2987 11.2838 72.1608 12.2114 71.3559 13.4004C69.9497 15.4677 69.6914 18.0975 70.6702 20.3967C71.2317 21.714 72.1658 22.8439 73.3633 23.6432C75.4452 25.0395 78.0935 25.2961 80.4089 24.3241C81.7356 23.7665 82.8684 22.839 83.6783 21.6499C85.0845 19.5777 85.3429 16.943 84.364 14.6487ZM77.5022 22.6466C74.6452 22.6416 72.3248 20.3424 72.3248 17.5054C72.3248 14.6635 74.6452 12.3643 77.5022 12.3643C80.3642 12.3643 82.6796 14.6685 82.6796 17.5054C82.6796 20.3424 80.3642 22.6466 77.5022 22.6466Z" fill="#FF4013"/>
<path d="M32.9327 10.1441C28.9826 10.0455 25.7032 13.1489 25.6038 17.0664C25.5989 17.2193 25.5989 17.3723 25.6088 17.5252C25.6088 21.8473 28.7491 24.9359 33.4594 24.9359C35.6357 25.0395 37.7424 24.1761 39.2132 22.5825L37.7574 20.8852C36.6791 22.0545 35.1388 22.691 33.5439 22.6367C30.6521 22.6367 28.5851 20.9395 28.2571 18.3985H40.0976C40.1274 18.1518 40.1523 17.8262 40.1523 17.6042C40.1523 13.1538 37.1512 10.1441 32.9327 10.1441ZM28.2522 16.5187C28.446 14.1159 30.508 12.2854 32.9327 12.3644C35.3575 12.2904 37.4195 14.1159 37.6133 16.5187H28.2522Z" fill="#FF4013"/>
<path d="M25.9914 10.144C23.4326 10.144 21.614 11.0173 20.6749 12.7146V10.2822H18.1409V24.7779H20.7842V17.5547C20.7842 14.3822 22.5481 12.6603 25.3853 12.6603C25.589 12.6554 25.7877 12.6653 25.9914 12.6899V10.144Z" fill="#FF4013"/>
<path d="M62.9538 22.7256C61.4979 22.7256 61.0309 21.8523 61.0309 20.2932V12.4433H65.2146V10.2823H61.0259V6.0293H58.3825V10.2823H57.4733V12.4433H58.3825V20.4017C58.3825 23.3275 59.6993 24.9409 62.6457 24.9409C63.6842 24.9804 64.7028 24.6152 65.4779 23.9294L64.6531 22.0447C64.2059 22.4887 63.5947 22.7305 62.9538 22.7256Z" fill="#FF4013"/>
<path d="M69.1 10.2822H66.4567V24.773H69.1V10.2822Z" fill="#FF4013"/>
<path d="M53.6523 12.3002C53.3194 11.9696 52.9567 11.6637 52.5592 11.4022C51.3319 10.5783 49.886 10.1392 48.4053 10.1441C47.4116 10.1441 46.4278 10.3414 45.5135 10.7263C44.1869 11.2838 43.049 12.2114 42.2441 13.4004C40.8379 15.4677 40.5796 18.0975 41.5584 20.3967C42.1199 21.714 43.054 22.8439 44.2514 23.6432C46.3333 25.0395 48.9817 25.2961 51.2971 24.3241C52.1815 23.954 52.9765 23.4113 53.6523 22.7452V24.7829H55.9329V10.2822H53.6523V12.3002ZM48.3954 22.6466C45.5383 22.6416 43.218 20.3424 43.218 17.5054C43.218 14.6635 45.5383 12.3643 48.3954 12.3643C51.2574 12.3643 53.5728 14.6685 53.5728 17.5054C53.5728 20.3424 51.2524 22.6466 48.3954 22.6466Z" fill="#FF4013"/>
<path d="M73.7458 5.92557L63.5152 8.28397L66.561 5.92557L54.0796 0.0493164L73.7458 5.92557Z" fill="#0D2E4E"/>
<path d="M73.7458 5.92557H66.561L54.0796 0.0493164L73.7458 5.92557Z" fill="#1A4580"/>
</svg>
