<svg width="46" height="46" viewBox="0 0 46 46" fill="none" xmlns="http://www.w3.org/2000/svg">
<g clip-path="url(#clip0_911_1186)">
<path fill-rule="evenodd" clip-rule="evenodd" d="M23.3565 0.0115245C23.23 2.44878e-05 23.115 2.2031e-05 23 2.2031e-05C19.1418 -0.00532416 15.3445 0.962419 11.9595 2.81373C8.57449 4.66504 5.71102 7.34012 3.63398 10.5915C3.54271 10.7182 3.4782 10.8622 3.44438 11.0146C3.41055 11.167 3.40812 11.3248 3.43724 11.4782C3.46636 11.6316 3.52642 11.7774 3.61375 11.9069C3.70108 12.0363 3.81386 12.1466 3.9452 12.2311C4.07655 12.3155 4.2237 12.3723 4.37772 12.398C4.53173 12.4237 4.68938 12.4178 4.84103 12.3806C4.99268 12.3434 5.13516 12.2757 5.2598 12.1817C5.38444 12.0876 5.4886 11.9692 5.56597 11.8335C6.30594 10.6864 7.15307 9.61211 8.09597 8.62502H14.8695C14.2215 10.4579 13.7329 12.3432 13.409 14.26H13.3975C12.195 14.553 10.9658 14.7225 9.72898 14.766C9.57284 14.7749 9.42007 14.8151 9.2798 14.8843C9.13952 14.9534 9.01461 15.0501 8.91248 15.1685C8.80659 15.286 8.72716 15.4248 8.67955 15.5755C8.63193 15.7263 8.61724 15.8856 8.63647 16.0425C8.82677 17.9965 9.14175 19.9363 9.57948 21.85H2.34597C2.40557 20.4989 2.60599 19.1576 2.94397 17.848C2.98463 17.7013 2.99568 17.5481 2.97647 17.3971C2.95726 17.2461 2.90819 17.1004 2.83211 16.9686C2.75603 16.8368 2.65446 16.7215 2.53334 16.6293C2.41222 16.5371 2.27396 16.47 2.12662 16.4319C1.97929 16.3937 1.82583 16.3852 1.67519 16.407C1.52456 16.4287 1.37977 16.4803 1.24926 16.5586C1.11875 16.6369 1.00513 16.7404 0.91503 16.863C0.824932 16.9857 0.760154 17.1251 0.724481 17.273C-0.141638 20.6411 -0.232445 24.1618 0.458915 27.57C1.15028 30.9783 2.60578 34.1853 4.71586 36.9496C6.82594 39.714 9.53562 41.9637 12.6409 43.5293C15.7462 45.095 19.1662 45.9358 22.6435 45.9885C22.7585 46 22.885 46 23 46C23.115 46 23.23 46 23.3565 45.9885C29.3904 45.8931 35.145 43.4291 39.3783 39.1283C43.6116 34.8275 45.9843 29.0347 45.9843 23C45.9843 16.9653 43.6116 11.1725 39.3783 6.87173C35.145 2.57093 29.3904 0.106957 23.3565 0.0115245ZM43.6655 21.85H36.4205C36.8622 19.9365 37.181 17.9967 37.375 16.0425C37.3906 15.8854 37.3741 15.7267 37.3263 15.5761C37.2786 15.4256 37.2007 15.2864 37.0974 15.1669C36.9941 15.0475 36.8676 14.9503 36.7255 14.8814C36.5834 14.8125 36.4287 14.7732 36.271 14.766C35.0341 14.7225 33.8049 14.553 32.6025 14.26H32.591C32.2671 12.3432 31.7785 10.4579 31.1305 8.62502H37.8695C41.3375 12.1872 43.3967 16.8858 43.6655 21.85V21.85ZM35.259 6.32502H30.1875C29.643 5.11761 28.9517 3.98202 28.129 2.94402C30.7013 3.60105 33.1224 4.74911 35.259 6.32502ZM22.747 2.31152C22.9153 2.29619 23.0847 2.29619 23.253 2.31152C25.8865 2.57602 28.681 6.81952 30.0955 13.4665C27.6721 12.5291 25.5355 10.9752 23.897 8.95852C23.7907 8.82207 23.6546 8.71174 23.4992 8.636C23.3437 8.56025 23.1729 8.5211 23 8.52153C22.8272 8.52232 22.6569 8.56202 22.5016 8.63767C22.3463 8.71333 22.2101 8.82299 22.103 8.95852C20.4645 10.9752 18.3279 12.5291 15.9045 13.4665C17.319 6.81952 20.1135 2.57602 22.747 2.31152ZM10.7295 6.32502C12.8694 4.73798 15.2995 3.58546 17.8825 2.93253C17.0575 3.97525 16.3624 5.11445 15.8125 6.32502H10.7295ZM13.0295 16.698C13.8426 16.5451 14.6453 16.3416 15.433 16.0885C18.3067 15.1967 20.9092 13.5948 23 11.431C25.0908 13.5948 27.6933 15.1967 30.567 16.0885C31.3547 16.3416 32.1574 16.5451 32.9705 16.698C33.6145 16.8245 34.2815 16.9165 34.9485 16.9855C34.7454 18.6224 34.4497 20.2465 34.063 21.85C33.8675 22.6665 33.649 23.437 33.4075 24.15C33.3858 24.2284 33.3589 24.3052 33.327 24.38C32.6935 26.3899 31.7549 28.2904 30.544 30.015C28.7711 32.6266 26.0762 34.4711 23 35.1785C19.921 34.4636 17.2237 32.6162 15.4445 30.0035C14.2398 28.2768 13.3053 26.3767 12.673 24.3685C12.6411 24.2976 12.6142 24.2246 12.5925 24.15C12.3625 23.437 12.144 22.6665 11.9485 21.85C11.552 20.248 11.2525 18.6236 11.0515 16.9855C11.7185 16.9165 12.3855 16.8245 13.0295 16.698V16.698ZM2.33447 24.15H10.189C10.8685 26.5013 11.8957 28.7379 13.2365 30.7855C13.5739 33.0282 14.1206 35.2343 14.8695 37.375H8.13048C4.66248 33.8128 2.60329 29.1143 2.33447 24.15V24.15ZM10.7525 39.675H15.8125C16.3531 40.8784 17.0407 42.0102 17.8595 43.0445C15.294 42.3939 12.88 41.2494 10.7525 39.675V39.675ZM23 43.7C20.5275 43.7 17.871 40.112 16.307 34.247C18.163 35.8125 20.3612 36.9194 22.724 37.4785C22.9051 37.5245 23.0949 37.5245 23.276 37.4785C25.6371 36.9211 27.8349 35.8183 29.693 34.2585C28.129 40.112 25.4725 43.7 23 43.7ZM28.1405 43.056C28.9552 42.0147 29.6425 40.8796 30.1875 39.675H35.259C33.1265 41.2508 30.7092 42.3989 28.1405 43.056V43.056ZM37.8695 37.375H31.1305C31.8808 35.2434 32.4238 33.0444 32.752 30.8085C34.1012 28.7557 35.1325 26.5109 35.811 24.15H43.6655C43.3967 29.1143 41.3375 33.8128 37.8695 37.375V37.375Z" fill="#843C64"/>
<path d="M18.918 23.583L21.2513 25.9163L27.0846 20.083" stroke="#843C64" stroke-width="2" stroke-linecap="round" stroke-linejoin="round"/>
</g>
<defs>
<clipPath id="clip0_911_1186">
<rect width="46" height="46" fill="white"/>
</clipPath>
</defs>
</svg>
