<svg width="45" height="40" viewBox="0 0 45 40" fill="none" xmlns="http://www.w3.org/2000/svg">
<g clip-path="url(#clip0_976_1647)">
<path fill-rule="evenodd" clip-rule="evenodd" d="M6.15491 38.2978H12.1917C13.2066 38.2978 14.0288 37.4868 14.0288 36.4867V30.5349C14.0288 29.5347 13.2066 28.7234 12.1917 28.7234H6.15491C5.1393 28.7234 4.31653 29.5347 4.31653 30.5349V36.4867C4.31653 37.4868 5.1393 38.2978 6.15491 38.2978Z" fill="#049474"/>
<path fill-rule="evenodd" clip-rule="evenodd" d="M19.6428 25.1064H25.6795C26.6949 25.1064 27.5179 24.2955 27.5179 23.2954V17.344C27.5179 16.3429 26.6949 15.532 25.6795 15.532H19.6428C18.6283 15.532 17.8057 16.3429 17.8057 17.344V23.2954C17.8057 24.2955 18.6283 25.1064 19.6428 25.1064Z" fill="#FCC200"/>
<path fill-rule="evenodd" clip-rule="evenodd" d="M6.15491 25.1064H12.1917C13.2066 25.1064 14.0288 24.2955 14.0288 23.2954V17.344C14.0288 16.3429 13.2066 15.532 12.1917 15.532H6.15491C5.1393 15.532 4.31653 16.3429 4.31653 17.344V23.2954C4.31653 24.2955 5.1393 25.1064 6.15491 25.1064Z" fill="#049474"/>
<mask id="mask0_976_1647" style="mask-type:alpha" maskUnits="userSpaceOnUse" x="4" y="2" width="11" height="10">
<path d="M4.43066 2.06379H14.122V11.6175H4.43066V2.06379Z" fill="white"/>
</mask>
<g mask="url(#mask0_976_1647)">
<path fill-rule="evenodd" clip-rule="evenodd" d="M6.26412 11.6165H12.2882C13.301 11.6165 14.122 10.8071 14.122 9.80901V3.87035C14.122 2.87226 13.301 2.06258 12.2882 2.06258H6.26412C5.25166 2.06258 4.43066 2.87226 4.43066 3.87035V9.80901C4.43066 10.8071 5.25166 11.6165 6.26412 11.6165Z" fill="#049474"/>
</g>
<path fill-rule="evenodd" clip-rule="evenodd" d="M19.6428 38.2978H25.6795C26.6949 38.2978 27.5179 37.487 27.5179 36.487V30.5342C27.5179 29.5343 26.6949 28.7234 25.6795 28.7234H19.6428C18.6283 28.7234 17.8057 29.5343 17.8057 30.5342V36.487C17.8057 37.487 18.6283 38.2978 19.6428 38.2978Z" fill="#049474"/>
<mask id="mask1_976_1647" style="mask-type:alpha" maskUnits="userSpaceOnUse" x="31" y="28" width="11" height="11">
<path d="M31.4873 28.7643H41.1785V38.4041H31.4873V28.7643Z" fill="white"/>
</mask>
<g mask="url(#mask1_976_1647)">
<path fill-rule="evenodd" clip-rule="evenodd" d="M33.3217 38.4041H39.3458C40.3583 38.4041 41.1786 37.5877 41.1786 36.5809V30.5875C41.1786 29.5807 40.3583 28.7643 39.3458 28.7643H33.3217C32.3083 28.7643 31.4873 29.5807 31.4873 30.5875V36.5809C31.4873 37.5877 32.3083 38.4041 33.3217 38.4041Z" fill="#E4006D"/>
</g>
</g>
<defs>
<clipPath id="clip0_976_1647">
<rect width="45" height="40" fill="white"/>
</clipPath>
</defs>
</svg>
